# AST/ASF file generated using VICON BodyLanguage
# -----------------------------------------------
:version 1.10
:name VICON
:units
  mass 1.0
  length 0.45
  angle deg
:documentation
   .ast/.asf automatically generated from VICON data using
   VICON BodyBuilder and BodyLanguage model FoxedUp or BRILLIANT.MOD
:root
   order TX TY TZ RX RY RZ
   axis XYZ
   position 0 0 0  
   orientation 0 0 0 
:bonedata
  begin
     id 1 
     name lhipjoint
     direction 0.547975 -0.797114 0.253638 
     length 2.36201 
     axis 0 0 0  XYZ
  end
  begin
     id 2 
     name lfemur
     direction 0.34202 -0.939693 0  
     length 7.69075  
     axis 0 0 20  XYZ
    dof rx ry rz
    limits (-160.0 20.0)
           (-70.0 70.0)
           (-60.0 70.0)
  end
  begin
     id 3 
     name ltibia
     direction 0.34202 -0.939693 0   
     length 7.91399   
     axis 0 0 20   XYZ
    dof rx
    limits (-10.0 170.0)
  end
  begin
     id 4 
     name lfoot
     direction 0.0705293 -0.193778 0.978507   
     length 2.13618   
     axis -90 7.62852e-016 20   XYZ
    dof rx rz
    limits (-45.0 90.0)
           (-70.0 20.0)
  end
  begin
     id 5 
     name ltoes
     direction 1.53592e-011 -4.21925e-011 1   
     length 1.07518   
     axis -90 7.62852e-016 20   XYZ
    dof rx
    limits (-90.0 20.0)
  end
  begin
     id 6 
     name rhipjoint
     direction -0.57 -0.782963 0.249136   
     length 2.4047  
     axis 0 0 0  XYZ 
  end
  begin
     id 7 
     name rfemur
     direction -0.34202 -0.939693 0   
     length 7.51486   
     axis 0 0 -20   XYZ
    dof rx ry rz
    limits (-160.0 20.0)
           (-70.0 70.0)
           (-70.0 60.0)
  end
  begin
     id 8 
     name rtibia
     direction -0.34202 -0.939693 0   
     length 8.08317   
     axis 0 0 -20   XYZ
    dof rx
    limits (-10.0 170.0)
 end
 begin
     id 9 
     name rfoot
     direction -0.104954 -0.281256 0.953876   
     length 2.30343  
     axis -90 -7.62852e-016 -20   XYZ
    dof rx rz
    limits (-45.0 90.0)
           (-20.0 70.0)
  end
  begin
     id 10 
     name rtoes
     direction -1.53556e-011 -4.21922e-011 1   
     length 1.14803   
     axis -90 -7.62852e-016 -20   XYZ
    dof rx
    limits (-90.0 20.0)
  end
  begin
     id 11 
     name lowerback
     direction -0.0152855 0.99353 -0.11254   
     length 2.05311   
     axis 0 0 0   XYZ
    dof rx ry rz
    limits (-20.0 45.0)
           (-30.0 30.0)
           (-30.0 30.0)
  end
  begin
     id 12 
     name upperback
     direction -0.00157509 0.999443 -0.033332   
     length 2.06353   
     axis 0 0 0   XYZ
    dof rx ry rz
    limits (-20.0 45.0)
           (-30.0 30.0)
           (-30.0 30.0)
  end
  begin
     id 13 
     name thorax
     direction 0.00577788 0.999804 0.0189484   
     length 2.08472   
     axis 0 0 0   XYZ
    dof rx ry rz
    limits (-20.0 45.0)
           (-30.0 30.0)
           (-30.0 30.0)
  end
  begin
     id 14 
     name lowerneck
     direction -1.09301e-005 0.994719 0.10264   
     length 1.76249   
     axis 0 0 0   XYZ
    dof rx ry rz
    limits (-20.0 45.0)
           (-30.0 30.0)
           (-30.0 30.0)
  end
  begin
     id 15 
     name upperneck
     direction 0.0495018 0.988526 -0.142706   
     length 1.77897   
     axis 0 0 0   XYZ
    dof rx ry rz
    limits (-20.0 45.0)
           (-30.0 30.0)
           (-30.0 30.0)
  end
  begin
     id 16
     name head
     direction 0.0142736 0.998114 -0.0597101  
     length 1.78934  
     axis 0 0 0   XYZ
    dof rx ry rz
    limits (-20.0 45.0)
           (-30.0 30.0)
           (-30.0 30.0)
  end
  begin
     id 17 
     name lclavicle
     direction 0.918111 0.396107 -0.0130883  
     length 3.37276  
     axis 0 0 0   XYZ
    dof ry rz
    limits (-20.0 10.0)
           (0.0 20.0)
  end
  begin
     id 18 
     name lhumerus
     direction 1 -4.48975e-011 -3.26108e-027   
     length 5.34298   
     axis 180 -30 -90   XYZ
    dof rx ry rz
    limits (-60.0 90.0)
           (-90.0 90.0)
           (-90.0 90.0)
  end
  begin
     id 19
     name lradius
     direction 1 -4.48964e-011 -8.84413e-028   
     length 3.67262   
     axis 180 -30 -90   XYZ
    dof rx
    limits (-10.0 170.0)
  end
  begin
     id 20
     name lwrist
     direction 1 -4.48991e-011 -1.24264e-027   
     length 1.83631   
     axis -2.17013e-015 90 90   XYZ
    dof ry
    limits (-180.0 0.0)
 end
  begin
     id 21 
     name lhand
     direction 1 -4.48855e-011 -2.48528e-027   
     length 0.599298   
     axis 1.58582e-015 90 90   XYZ
    dof rx rz
    limits (-90.0 90.0)
           (-45.0 45.0)
  end
  begin
     id 22 
     name lfingers
     direction 1 -4.48811e-011 -4.97056e-027   
     length 0.48317   
     axis 3.17164e-015 90 90   XYZ
    dof rx
    limits (0.0 90.0)
  end
  begin
     id 23
     name lthumb
     direction 0.707107 -6.34882e-011 0.707107   
     length 0.693738   
     axis -90 45 2.85299e-015   XYZ
    dof rx rz
    limits (-45.0 45.0)
           (-45.0 45.0)
  end
  begin
     id 24 
     name rclavicle
     direction -0.920511 0.384752 -0.0680135   
     length 3.43787  
     axis 0 0 0   XYZ 
    dof ry rz
    limits (-10.0 20.0)
           (-20.0 0.0)
  end
  begin
     id 25 
     name rhumerus
     direction -0.999976 -0.00330524 0.00603274  
     length 5.5498   
     axis 180 30 90   XYZ
    dof rx ry rz
    limits (-90.0 60.0)
           (-90.0 90.0)
           (-90.0 90.0)
  end
  begin
     id 26 
     name rradius
     direction -1 -4.48967e-011 8.62438e-027   
     length 3.69401   
     axis 180 30 90   XYZ
    dof rx
    limits (-10.0 170.0)
  end
  begin
     id 27 
     name rwrist
     direction -1 -4.4897e-011 9.54866e-027   
     length 1.84701   
     axis -7.69462e-015 -90 -90   XYZ
    dof ry
    limits (-180.0 0.0)
  end
  begin
     id 28
     name rhand
     direction -1 -4.48982e-011 1.90973e-026   
     length 0.638113   
     axis -1.21857e-014 -90 -90   XYZ
    dof rx rz
    limits (-90.0 90.0)
           (-45.0 45.0)
  end
  begin
     id 29
     name rfingers
     direction -1 -4.48936e-011 3.81946e-026   
     length 0.514463   
     axis -2.43714e-014 -90 -90   XYZ
    dof rx
    limits (0.0 90.0)
  end
  begin
     id 30
     name rthumb
     direction -0.707107 -6.34942e-011 0.707107   
     length 0.738669   
     axis -90 -45 -2.85299e-015   XYZ
    dof rx rz
    limits (-45.0 45.0)
           (-45.0 45.0)
  end
:hierarchy
  begin
    root lhipjoint rhipjoint lowerback
    lhipjoint lfemur
    lfemur ltibia
    ltibia lfoot
    lfoot ltoes
    rhipjoint rfemur
    rfemur rtibia
    rtibia rfoot
    rfoot rtoes
    lowerback upperback
    upperback thorax
    thorax lowerneck lclavicle rclavicle
    lowerneck upperneck
    upperneck head
    lclavicle lhumerus
    lhumerus lradius
    lradius lwrist
    lwrist lhand lthumb
    lhand lfingers
    rclavicle rhumerus
    rhumerus rradius
    rradius rwrist
    rwrist rhand rthumb
    rhand rfingers
  end

#!OML:ASF F:\twosubjects\two\Thursday\Session 1\Rory.ASF
:FULLY-SPECIFIED
:DEGREES
132
root 18.4158 18.668 1.71292 2.38594 -5.0013 6.16283
lowerback 2.83294 -3.46797 -9.1557
upperback 1.36683 -4.85219 -2.71901
thorax 0.353371 -2.46841 2.38681
lowerneck -2.11008 -13.2944 -13.6503
upperneck 8.10552 -19.6229 20.5123
head 6.25191 -9.34623 7.03006
rclavicle 4.2043e-014 1.90833e-014
rhumerus -52.9963 -30.0648 -53.5391
rradius 18.4884
rwrist 34.4729
rhand -24.1438 26.9427
rfingers 7.12502
rthumb 2.33847 -3.0242
lclavicle 4.2043e-014 1.90833e-014
lhumerus -36.8379 -10.8484 80.1761
lradius 86.9413
lwrist -32.9962
lhand -5.88474 24.3036
lfingers 7.12502
lthumb 19.9432 53.3002
rfemur -25.4973 4.1469 9.50436
rtibia 33.4896
rfoot -10.2698 -13.6792
rtoes -14.0525
lfemur -2.57591 0.36345 -27.0169
ltibia 18.7848
lfoot -14.118 -0.336061
ltoes 14.7826
133
root 18.4095 18.6925 1.84336 2.52184 -4.76586 6.2271
lowerback 2.44162 -3.67365 -9.19413
upperback 1.53084 -5.06644 -2.73278
thorax 0.76915 -2.59556 2.35608
lowerneck -2.36265 -13.2815 -13.4126
upperneck 7.78447 -19.5816 20.7995
head 6.19961 -9.30628 7.07732
rclavicle -3.46879e-014 -7.95139e-015
rhumerus -51.7545 -29.1465 -55.4784
rradius 18.8746
rwrist 33.1834
rhand -23.6167 27.2191
rfingers 7.12502
rthumb 2.84749 -2.74166
lclavicle -3.46879e-014 -7.95139e-015
lhumerus -36.3294 -10.7953 79.8891
lradius 86.9949
lwrist -32.7827
lhand -4.8333 24.2938
lfingers 7.12502
lthumb 20.9536 53.182
rfemur -25.2419 4.8306 9.22593
rtibia 30.5617
rfoot -9.68244 -13.7
rtoes -14.5301
lfemur -1.99142 1.00885 -27.0726
ltibia 18.0207
lfoot -13.868 -0.679297
ltoes 13.0415
134
root 18.402 18.7061 1.96779 2.55574 -4.64363 6.79816
lowerback 2.13881 -3.81193 -9.81802
upperback 1.65459 -5.21201 -2.81416
thorax 1.1345 -2.6906 2.57833
lowerneck -2.47867 -13.2848 -13.1605
upperneck 7.37603 -19.5171 20.8243
head 6.06054 -9.27607 7.05112
rclavicle -2.22639e-014 5.56597e-015
rhumerus -50.9794 -29.0444 -56.1384
rradius 18.9131
rwrist 33.1207
rhand -23.281 28.7335
rfingers 7.12502
rthumb 3.17171 -1.22261
lclavicle -2.22639e-014 5.56597e-015
lhumerus -35.973 -10.6792 79.8245
lradius 87.1865
lwrist -32.4681
lhand -3.97852 24.5335
lfingers 7.12502
lthumb 21.7746 53.3287
rfemur -25.0137 5.64238 8.34637
rtibia 27.7408
rfoot -9.05518 -13.8671
rtoes -15.0833
lfemur -1.28136 1.47651 -27.6921
ltibia 17.1548
lfoot -13.3376 -0.875856
ltoes 9.2164
135
root 18.3949 18.6992 2.08366 2.53942 -4.59433 6.95899
lowerback 2.18294 -3.81309 -9.91869
upperback 1.58081 -5.22648 -2.81347
thorax 1.04381 -2.6929 2.6404
lowerneck -2.35805 -13.3558 -12.9543
upperneck 7.26457 -19.5838 20.6044
head 5.97049 -9.32181 6.94932
rclavicle -1.64991e-014 -1.90833e-014
rhumerus -50.5146 -28.7027 -56.7668
rradius 19.2022
rwrist 32.5359
rhand -23.1041 29.4806
rfingers 7.12502
rthumb 3.34258 -0.472917
lclavicle -1.64991e-014 -1.90833e-014
lhumerus -35.9493 -10.8074 80.0451
lradius 87.3696
lwrist -32.5354
lhand -3.23438 24.5767
lfingers 7.12502
lthumb 22.489 53.2872
rfemur -24.8761 6.94198 7.79264
rtibia 25.0811
rfoot -8.4725 -14.4493
rtoes -12.1199
lfemur -0.219677 1.45887 -27.7989
ltibia 16.2754
lfoot -12.9684 -1.37699
ltoes 13.3026
136
root 18.3787 18.7026 2.19996 2.66636 -4.49258 6.4711
lowerback 2.11226 -3.80765 -9.43703
upperback 1.51971 -5.20867 -2.62826
thorax 0.99022 -2.67713 2.56847
lowerneck -2.3219 -13.4499 -12.8833
upperneck 7.24004 -19.7122 20.5637
head 5.96729 -9.38599 6.9092
rclavicle -4.64162e-014 -5.56597e-015
rhumerus -49.6151 -27.316 -58.5944
rradius 19.8768
rwrist 29.9757
rhand -23.3774 28.3074
rfingers 7.12502
rthumb 3.07866 -1.65008
lclavicle -4.64162e-014 -5.56597e-015
lhumerus -35.8862 -11.0791 80.2687
lradius 87.4639
lwrist -32.682
lhand -2.7135 24.7243
lfingers 7.12502
lthumb 22.9889 53.3734
rfemur -24.9398 8.73821 7.87785
rtibia 22.8198
rfoot -8.71365 -15.8685
rtoes -9.67075
lfemur 0.785656 1.33495 -27.1781
ltibia 15.1937
lfoot -12.7495 -1.70248
ltoes 18.3855
